<?xml version="1.0" standalone="no"?>
<!DOCTYPE svg PUBLIC "-//W3C//DTD SVG 20010904//EN"
 "http://www.w3.org/TR/2001/REC-SVG-20010904/DTD/svg10.dtd">
<svg version="1.0" xmlns="http://www.w3.org/2000/svg"
 width="225.000000pt" height="225.000000pt" viewBox="0 0 225.000000 225.000000"
 preserveAspectRatio="xMidYMid meet">

<g transform="translate(0.000000,225.000000) scale(0.100000,-0.100000)"
fill="#000000" stroke="none">
<path d="M1801 1781 c-13 -3 -27 -13 -31 -21 -35 -69 -43 -111 -22 -118 7 -2
12 1 12 7 0 20 26 11 65 -22 48 -41 41 -62 -17 -53 -43 7 -138 52 -177 83 -32
26 -23 58 14 49 14 -3 37 -8 53 -11 22 -4 21 -3 -8 9 -65 27 -90 18 -90 -32
-1 -45 -15 -45 -111 2 -52 24 -125 52 -164 61 -89 21 -257 21 -352 1 -67 -14
-75 -14 -105 2 -18 9 -35 20 -38 24 -7 10 -44 8 -108 -5 -85 -17 -151 -84
-167 -170 -5 -25 -13 -37 -24 -37 -22 0 -54 -38 -47 -56 3 -8 12 -14 21 -14
18 0 20 -17 3 -22 -10 -4 -10 -10 -1 -31 8 -16 9 -29 3 -32 -6 -4 -10 -12 -10
-20 0 -19 40 -6 62 19 17 21 17 21 18 1 0 -11 4 -16 8 -10 4 6 23 10 42 11 19
0 82 6 139 13 94 11 110 16 162 51 60 39 74 36 48 -12 -6 -11 -8 -22 -5 -25 3
-3 11 7 18 23 6 16 13 30 14 32 1 2 25 -9 52 -25 37 -20 54 -25 62 -17 8 8 7
11 -2 11 -24 0 -99 56 -114 84 -17 34 -18 51 -1 48 6 -1 20 1 30 6 9 4 30 4
45 1 15 -4 45 -11 67 -15 59 -12 113 -38 125 -60 6 -12 26 -22 52 -26 48 -8
122 -47 136 -71 5 -10 37 -21 84 -29 42 -7 85 -16 96 -19 16 -5 21 -1 25 22
13 66 -17 112 -75 112 -21 0 -38 2 -38 5 0 2 8 20 17 40 18 37 32 41 81 24 37
-13 45 -34 37 -93 -6 -40 -5 -46 19 -61 21 -14 24 -20 15 -37 -6 -11 -8 -22
-5 -25 3 -3 8 2 12 11 9 23 23 20 36 -9 10 -23 44 -43 54 -32 3 2 -7 29 -22
59 l-27 55 38 58 c20 32 43 65 51 72 8 8 14 20 14 28 0 16 -52 61 -81 70 -13
4 -18 12 -15 22 3 8 9 25 12 38 4 17 15 26 37 30 54 11 67 16 67 26 0 10 -52
11 -89 0z m-966 -41 c44 -17 105 -89 105 -125 0 -77 -175 -153 -308 -136 -30
4 -58 14 -63 22 -5 8 -9 10 -9 4 0 -54 178 -57 282 -4 47 24 46 24 46 -6 0
-23 -3 -24 -40 -19 -34 6 -40 4 -45 -15 -7 -27 -47 -37 -79 -20 -20 10 -29 11
-42 1 -33 -23 -45 -25 -57 -9 -13 18 -41 23 -47 9 -1 -5 -15 -12 -30 -16 -21
-5 -28 -3 -28 8 0 8 5 18 10 21 17 10 11 21 -16 34 -22 10 -24 14 -13 27 8 10
22 14 40 10 22 -4 27 -2 23 9 -3 8 1 38 10 68 12 40 27 64 56 91 38 34 69 48
54 25 -4 -7 -2 -10 5 -8 7 3 12 9 11 14 -4 23 88 33 135 15z m505 -51 c80 -22
209 -84 217 -106 3 -7 0 -26 -6 -41 -6 -15 -15 -40 -21 -55 -9 -26 -11 -27
-31 -14 -11 8 -28 30 -37 48 -20 38 -104 88 -250 146 -51 20 -88 39 -82 43 18
11 132 -1 210 -21z m-270 11 c-11 -7 -8 -10 16 -10 56 0 293 -105 343 -151 25
-24 28 -37 4 -18 -15 12 -16 12 -10 -3 3 -10 2 -18 -2 -18 -5 0 -11 6 -13 12
-3 7 -19 12 -39 10 -28 -1 -31 0 -16 9 10 6 30 8 44 5 16 -5 22 -3 18 4 -3 5
-14 10 -23 10 -10 0 -26 6 -37 14 -11 7 -31 17 -43 21 -13 4 -33 16 -43 26
-10 10 -32 19 -49 19 -31 0 -76 16 -100 37 -9 7 -41 15 -73 19 -44 5 -62 3
-82 -10 -20 -13 -25 -14 -25 -3 0 15 62 34 115 36 23 0 26 -2 15 -9z m-20 -42
c0 -13 -32 -6 -37 9 -3 7 3 9 16 6 12 -3 21 -10 21 -15z m-80 -75 c0 -13 -5
-23 -11 -23 -6 0 -8 -8 -4 -19 7 -22 -13 -32 -45 -24 -20 5 -20 7 11 32 22 18
32 35 32 55 0 20 2 24 8 15 5 -8 9 -24 9 -36z m276 29 c12 -7 48 -72 40 -72
-2 0 -14 16 -27 36 -21 35 -24 36 -68 31 -30 -4 -39 -3 -26 3 25 11 66 12 81
2z m264 -172 c0 -15 -5 -12 -26 11 -19 22 -19 22 4 10 12 -6 22 -16 22 -21z"/>
<path d="M735 1720 c4 -6 11 -8 16 -5 14 9 11 15 -7 15 -8 0 -12 -5 -9 -10z"/>
<path d="M650 1690 c0 -5 5 -10 10 -10 6 0 10 5 10 10 0 6 -4 10 -10 10 -5 0
-10 -4 -10 -10z"/>
<path d="M710 1650 c0 -5 5 -10 11 -10 5 0 7 5 4 10 -3 6 -8 10 -11 10 -2 0
-4 -4 -4 -10z"/>
<path d="M854 1400 c-171 -15 -536 -91 -631 -131 l-32 -14 45 -135 c36 -109
111 -384 126 -462 3 -15 11 -13 73 14 101 43 321 114 439 140 85 19 130 23
281 23 237 0 381 -30 649 -132 49 -18 90 -32 91 -31 1 2 12 48 24 103 28 122
85 330 110 395 l18 48 -86 31 c-183 65 -404 118 -591 141 -117 15 -406 20
-516 10z m284 -91 l-3 -54 -55 -10 c-52 -10 -55 -12 -58 -43 -4 -37 -6 -36 47
-17 l41 14 0 -47 0 -47 -52 -15 c-43 -12 -54 -20 -56 -39 -3 -19 0 -22 13 -17
9 3 34 9 56 12 l39 7 0 -59 0 -59 -111 -29 c-80 -20 -114 -25 -119 -17 -5 8
-20 6 -54 -9 -26 -11 -51 -20 -56 -20 -4 0 -13 41 -19 92 -7 51 -14 94 -16 96
-3 3 -7 -43 -18 -198 -2 -28 -7 -37 -30 -44 -21 -8 -30 -7 -36 3 -7 10 -26
164 -32 252 -1 8 -5 3 -9 -11 -4 -14 -8 -70 -9 -125 l-1 -100 -61 -24 c-33
-13 -62 -21 -65 -18 -3 2 0 42 6 88 6 46 13 148 17 226 l6 142 65 26 c35 14
67 23 71 20 3 -4 11 -41 16 -83 l11 -77 7 81 8 81 66 26 c37 15 68 25 70 24 1
-2 7 -45 13 -97 9 -83 47 -290 55 -298 1 -1 8 57 15 130 6 73 15 162 18 197
l7 65 88 17 c48 10 93 19 100 22 21 8 28 -9 25 -64z m305 31 c42 -33 44 -57 7
-95 -28 -29 -37 -32 -71 -28 -34 5 -42 2 -68 -25 -36 -40 -71 -113 -71 -151 0
-33 22 -61 48 -61 23 0 59 26 72 51 10 18 8 19 -30 13 -45 -7 -48 -1 -29 54
11 32 18 36 84 46 22 4 52 9 68 12 24 5 27 3 27 -23 0 -67 -82 -194 -149 -231
-46 -26 -117 -29 -149 -6 -88 62 -57 263 61 391 67 72 148 94 200 53z m364
-54 c2 -2 -13 -51 -32 -109 -19 -59 -46 -157 -61 -217 l-26 -110 -69 0 c-38 0
-69 4 -69 10 0 5 5 21 12 35 6 14 9 27 6 30 -10 10 -37 -7 -43 -26 -5 -16 -16
-19 -76 -19 -68 0 -70 1 -63 23 4 12 10 24 14 27 11 7 157 253 188 317 l27 55
95 -7 c52 -3 96 -8 97 -9z"/>
<path d="M1614 1088 c-15 -35 -30 -67 -32 -72 -3 -5 2 -6 9 -4 12 4 62 128 55
136 -2 1 -16 -26 -32 -60z"/>
<path d="M210 1093 c-35 -10 -120 -46 -120 -50 0 -3 13 -22 28 -42 38 -50 75
-122 107 -211 23 -62 28 -93 29 -181 l1 -106 135 68 c74 37 158 75 187 85 l51
17 34 -29 c196 -172 516 -224 765 -124 79 32 172 87 215 128 26 24 30 25 70
13 34 -10 155 -66 318 -149 3 -1 3 42 2 97 -5 121 12 194 71 311 23 47 43 88
45 91 3 5 -82 46 -107 51 -16 4 -40 -72 -82 -262 -16 -74 -31 -140 -34 -147
-3 -8 -29 -2 -87 22 -46 18 -102 39 -125 45 l-42 13 -55 -50 c-61 -56 -180
-121 -271 -149 -86 -26 -306 -26 -390 0 -114 35 -206 87 -280 157 l-40 38
-135 -55 c-74 -30 -137 -54 -141 -54 -3 0 -25 75 -48 168 -59 238 -83 310
-101 305z"/>
<path d="M804 748 c3 -13 5 -44 5 -70 1 -45 2 -47 24 -39 12 4 28 6 36 3 8 -3
11 0 7 7 -4 6 -18 11 -32 11 -23 0 -24 3 -24 55 0 30 -4 55 -10 55 -5 0 -8
-10 -6 -22z"/>
<path d="M1088 764 c-3 -3 -4 -24 -1 -47 l4 -42 -20 37 c-26 46 -38 53 -49 31
-15 -29 -24 -103 -12 -103 5 0 10 15 10 33 0 17 4 39 9 46 8 12 13 8 28 -18
39 -71 42 -71 43 2 0 66 -1 72 -12 61z"/>
<path d="M1469 751 l-24 -19 28 -29 c15 -16 27 -32 27 -36 0 -3 -12 -13 -27
-21 -17 -9 -22 -15 -12 -16 8 0 25 9 38 21 l22 21 -22 24 c-21 22 -21 54 1 54
5 0 10 5 10 10 0 15 -15 12 -41 -9z"/>
<path d="M911 705 c-24 -64 -27 -93 -6 -54 20 36 54 44 65 16 8 -21 9 -21 9 4
1 38 -19 89 -34 89 -8 0 -23 -25 -34 -55z m49 3 c0 -5 -9 -8 -20 -8 -18 0 -19
3 -9 21 9 17 13 19 20 8 5 -8 9 -17 9 -21z"/>
<path d="M1162 753 c-16 -6 -42 -56 -42 -82 0 -28 32 -44 64 -31 35 13 33 18
-6 16 -29 -1 -33 3 -36 25 -4 34 24 62 55 56 15 -3 23 1 23 9 0 14 -32 18 -58
7z"/>
<path d="M1311 733 c-1 -18 -4 -33 -8 -33 -5 0 -18 -3 -30 -6 -20 -6 -23 -3
-23 25 0 17 -3 31 -7 31 -5 0 -6 -26 -4 -57 2 -32 6 -51 9 -43 10 30 62 43 62
15 0 -8 5 -15 10 -15 12 0 12 54 0 90 -8 24 -8 23 -9 -7z"/>
<path d="M1357 753 c-11 -3 -16 -10 -13 -20 3 -8 6 -34 6 -57 l0 -42 40 4 c51
5 52 22 3 23 l-38 2 38 10 c47 13 49 30 1 21 -33 -6 -36 -5 -32 17 2 19 10 25
36 27 17 2 32 7 32 13 0 9 -40 10 -73 2z"/>
</g>
</svg>
